<svg width="42" height="46" fill="none" xmlns="http://www.w3.org/2000/svg"><path fill="#13A152" d="M39.378 7.651L34.56 6.238l-7.942 27.076 4.819 1.413z"/><path d="M1.45 28.75c8.892 0 16.1 7.208 16.1 16.1H1.45v-16.1z" fill="#D34F82"/><path d="M41.581 10.409a.668.668 0 00-.157-.203.62.62 0 00-.218-.123l-2.104-.669.378-1.347a1.544 1.544 0 00-.365-1.485l.701-2.497c.368-1.32-.338-2.712-1.574-3.103a2.2 2.2 0 00-1.785.196 2.447 2.447 0 00-1.13 1.48l-.702 2.496a1.404 1.404 0 00-1.032.906L28.17.555l-.095-.097a2.22 2.22 0 00-.36-.318l-.006-.004a.609.609 0 00-.158-.077.901.901 0 00-.328-.059H1.54C.88 0 .343.572.343 1.275v19.282c0 .372.283.674.632.674.35 0 .632-.302.632-.674V1.347h25.13l-.004 3.892c0 1.708 1.304 3.097 2.907 3.097h3.309l-2.6 9.265a.713.713 0 00.049.513.65.65 0 00.375.326c.335.107.687-.096.787-.453l2.836-10.105a.726.726 0 00.014-.05l.357-1.27a.12.12 0 01.146-.081l3.28 1.043a.115.115 0 01.067.06c.01.02.02.054.009.095L37.71 9.67l-.002.005v.004l-6.896 24.573-1.144-.364-2.358-.75 3.415-12.166a.715.715 0 00-.05-.513.666.666 0 00-.157-.203.598.598 0 00-.7-.07.666.666 0 00-.305.4l-3.597 12.812-.002.012-.006.025a.714.714 0 00-.017.132v.02c0 .026 0 .052.003.077v.002l.35 3.325.25 2.353c-.24-.167-.42-.459-.636-.834-.266-.462-.63-1.093-1.326-.954-.584.12-.86.64-1.125 1.145-.139.26-.281.531-.48.8-.147.2-.246.256-.278.258-.026.002-.173-.013-.587-.452-1.085-1.147-1.928-.365-2.334.011-.151.14-.323.3-.435.321-.107.02-.301-.097-.522-.313a.597.597 0 00-.694-.114.636.636 0 00-.2.156.712.712 0 00.039.952c1.294 1.265 2.205.42 2.642.015.107-.1.286-.265.348-.278 0 0 .086.017.264.206.396.42.88.844 1.474.844l.082-.003c.437-.028.839-.287 1.195-.77.26-.35.441-.695.588-.973a6.92 6.92 0 01.173-.315c.034.056.068.116.098.168.355.617 1.011 1.755 2.47 1.626h.007c.086 0 .172-.02.25-.058l.032-.016.007-.003a.615.615 0 00.087-.057 1.269 1.269 0 00.221-.22l3.87-4.965.015-.023a.843.843 0 00.057-.094l.01-.02a.708.708 0 00.034-.093c0-.003.002-.005.003-.008l1.778-6.338v15.707H1.607v-20.98c0-.373-.283-.674-.632-.674-.35 0-.632.301-.632.674v21.05C.343 45.427.88 46 1.54 46h32.146c.662 0 1.2-.573 1.2-1.278V24.438l3.854-13.732 1.498.476-2.57 9.156a.715.715 0 00.099.596.644.644 0 00.223.2.6.6 0 00.662-.062.676.676 0 00.228-.348l2.75-9.802a.715.715 0 00-.049-.513zm-5.043-7.366a1.13 1.13 0 01.52-.68 1.025 1.025 0 01.822-.09c.569.18.893.82.724 1.427l-.657 2.34-2.066-.658.657-2.34zm-8.54 2.196L28 2.244l4.674 4.745H29.64c-.906 0-1.642-.785-1.642-1.75zm-.311 33.352l-.43-4.063 2.882.916-2.452 3.147z" fill="#13201E"/><path d="M8.347 18.19c0 .178.067.35.185.476.119.126.28.197.448.197h17.17c.349 0 .632-.301.632-.674 0-.372-.284-.673-.633-.673H8.98a.613.613 0 00-.447.197.697.697 0 00-.185.476zm.633 5.91h16.123c.35 0 .632-.301.632-.674 0-.372-.283-.674-.632-.674H8.98c-.35 0-.633.302-.633.674 0 .373.283.674.633.674zm0 5.238h14.875c.35 0 .633-.302.633-.674 0-.372-.283-.674-.633-.674H8.98c-.35 0-.633.302-.633.674 0 .372.283.674.633.674zm0 5.238h10.187c.35 0 .633-.302.633-.674 0-.372-.283-.674-.633-.674H8.98c-.35 0-.633.302-.633.674 0 .372.283.674.633.674zm15.158-20.893c.586 0 1.063-.508 1.063-1.132V9.835c0-.625-.477-1.133-1.063-1.133H10.222c-.586 0-1.063.508-1.063 1.133v2.717c0 .624.477 1.132 1.063 1.132h13.916zM10.424 10.05h13.513v2.287H10.424V10.05z" fill="#13201E"/></svg>