<svg width="60" height="32" fill="none" xmlns="http://www.w3.org/2000/svg"><rect x="39" y="13.251" width="13.635" height="13.621" rx="6.81" transform="rotate(-32.124 39 13.25)" fill="#D34F82"/><path d="M12 1h11c0 6.075-4.925 11-11 11V1z" fill="#13A152"/><path d="M51.31 32a5.064 5.064 0 11-.008-10.128A5.064 5.064 0 0151.309 32zm0-8.281a3.217 3.217 0 10-.008 6.433 3.217 3.217 0 00.007-6.433zM24.621 32a5.064 5.064 0 11-.01-10.127A5.064 5.064 0 0124.622 32zm0-8.281a3.218 3.218 0 10-.009 6.435 3.218 3.218 0 00.01-6.435z" fill="#13201E"/><path d="M57.972 27.86h-2.526a.924.924 0 010-1.848h2.265v-4.898a3.88 3.88 0 00-.493-1.892l-5-8.965a.492.492 0 00-.43-.252h-6.814v16.01h2.2a.924.924 0 010 1.848H44.05a.924.924 0 01-.924-.924V9.081a.923.923 0 01.923-.923h7.738a2.34 2.34 0 012.045 1.2l4.999 8.965a5.74 5.74 0 01.725 2.79v5.161a1.587 1.587 0 01-1.585 1.585zm-37.486 0h-8.857a.924.924 0 01-.923-.925v-7.103a.924.924 0 011.847 0v6.18h7.933a.924.924 0 010 1.847zm-8.857-11.305a.924.924 0 01-.923-.924V9.429a.924.924 0 111.847 0v6.206a.924.924 0 01-.924.92z" fill="#13201E"/><path d="M44.05 27.86H28.758a.923.923 0 110-1.848h14.369V1.847H12.553v3.805a.923.923 0 11-1.847 0V1.677A1.68 1.68 0 0112.384 0h30.913a1.68 1.68 0 011.677 1.677v25.259a.923.923 0 01-.924.923zm-28.769-7.104H3.558a.924.924 0 110-1.848H15.28a.924.924 0 010 1.848z" fill="#13201E"/><path d="M24.622 16.555H8.264a.923.923 0 110-1.848h16.358a.923.923 0 110 1.848zM7.755 11.678H1.367a.924.924 0 010-1.848h6.388a.924.924 0 010 1.848zm10.243-5.103H6.722a.924.924 0 010-1.847h11.276a.924.924 0 010 1.847z" fill="#13201E"/></svg>