<svg width="36" height="48" fill="none" xmlns="http://www.w3.org/2000/svg"><rect x="1.072" y="13.391" width="24.712" height="24.686" rx="12.343" transform="rotate(-32.124 1.072 13.39)" fill="#D34F82"/><rect width="18.275" height="17.246" rx="8.623" transform="scale(-1 1) rotate(-16.349 25.86 107.048)" fill="#FFFDFE"/><rect width="5" height="5" rx="2.5" transform="matrix(1 0 0 -1 15 18)" fill="#13A152"/><rect width="5" height="5" rx="2.5" transform="matrix(1 0 0 -1 16 22)" fill="#13A152"/><path d="M26.742 19.134a.721.721 0 00.535-.15.735.735 0 00.273-.49C28.244 12.688 23.748 7.6 18 7.6c-5.304 0-9.62 4.36-9.62 9.717 0 5.358 4.316 9.717 9.62 9.717a9.603 9.603 0 007.904-4.177.74.74 0 00-.182-1.021.72.72 0 00-1.01.184A8.155 8.155 0 0118 25.567c-4.504 0-8.167-3.701-8.167-8.25 0-4.55 3.663-8.25 8.167-8.25 4.868 0 8.7 4.308 8.108 9.251a.739.739 0 00.15.54.724.724 0 00.484.276z" fill="#13201E"/><path d="M22.394 37.481h-.155v-7.287a13.559 13.559 0 009.192-12.877C31.43 9.837 25.406 3.75 18 3.75c-7.406 0-13.431 6.086-13.431 13.567 0 7.351 5.784 13.347 13.032 13.56a.728.728 0 00.747-.71.737.737 0 00-.198-.525.723.723 0 00-.506-.23C11.125 29.22 6.02 23.907 6.02 17.317c0-6.672 5.374-12.1 11.979-12.1 6.605 0 11.979 5.428 11.979 12.1 0 5.369-3.564 10.152-8.666 11.632a.738.738 0 00-.526.705v8.56c0 .195.076.382.213.52.136.137.32.214.513.214h.88c.333 0 .53.375.342.653l-4.394 6.5a.411.411 0 01-.682 0l-4.394-6.5a.418.418 0 01.341-.653h.881a.722.722 0 00.514-.215.737.737 0 00.212-.518v-4.567A.737.737 0 0015 33.13a.722.722 0 00-1.027 0 .737.737 0 00-.213.518v3.833h-.155c-1.497 0-2.385 1.697-1.54 2.947l4.393 6.5a1.855 1.855 0 003.082 0l4.393-6.5c.844-1.249-.042-2.947-1.54-2.947z" fill="#13201E"/><path d="M8.082 34.264v-4.476a.737.737 0 00-.213-.519.722.722 0 00-1.026 0 .737.737 0 00-.213.519v5.141a.74.74 0 00.213.519c.136.137.32.214.513.214h.233c.292 0 .464.33.3.574l-2.887 4.27a.36.36 0 01-.6 0l-2.886-4.27a.367.367 0 01.3-.574h.233a.722.722 0 00.513-.214.737.737 0 00.213-.519V22.817a.737.737 0 00-.213-.519.722.722 0 00-1.026 0 .737.737 0 00-.213.519v11.447C.139 34.6-.387 36.022.317 37.063l2.887 4.27a1.806 1.806 0 002.997 0l2.887-4.27c.703-1.041.179-2.462-1.006-2.799zm26.595 0V22.817a.737.737 0 00-.213-.519.722.722 0 00-1.026 0 .737.737 0 00-.213.519v12.112a.726.726 0 00.726.733h.233c.292 0 .464.33.3.574l-2.887 4.27a.36.36 0 01-.6 0l-2.886-4.27a.367.367 0 01.3-.574h.233a.722.722 0 00.513-.214.737.737 0 00.213-.519v-5.141a.737.737 0 00-.213-.519.722.722 0 00-1.027 0 .737.737 0 00-.212.519v4.476c-1.188.337-1.708 1.76-1.006 2.799l2.886 4.27a1.805 1.805 0 002.998 0l2.887-4.27c.705-1.043.176-2.463-1.006-2.799zM18 24.284a.723.723 0 00.513-.215.737.737 0 00.213-.519v-.982c1.6-.277 2.806-1.448 2.806-2.846 0-2.2-1.96-2.602-3.391-2.895-1.7-.348-2.228-.594-2.228-1.457 0-.782.954-1.443 2.084-1.443.77 0 1.479.302 1.847.788a.725.725 0 001.015.132.735.735 0 00.138-1.024c-.517-.68-1.336-1.142-2.271-1.3v-.981a.738.738 0 00-.213-.519.723.723 0 00-1.026 0 .738.738 0 00-.213.519v.98c-1.604.275-2.813 1.448-2.813 2.848 0 2.2 1.96 2.601 3.391 2.895 1.7.348 2.228.594 2.228 1.457 0 .782-.954 1.442-2.083 1.442-.772 0-1.48-.302-1.849-.788a.725.725 0 00-1.015-.132.735.735 0 00-.137 1.025c.518.682 1.34 1.144 2.278 1.301v.98a.735.735 0 00.726.734z" fill="#13201E"/></svg>