<?xml version="1.0" encoding="utf-8"?><svg xmlns="http://www.w3.org/2000/svg" xmlns:xlink="http://www.w3.org/1999/xlink"><symbol viewBox="0 0 16 16" id="faq-arrow-left" xmlns="http://www.w3.org/2000/svg">
    <path d="M8 15L1 8M1 8L8 1M1 8H15" stroke-linecap="round" stroke-linejoin="round"/>
</symbol><symbol viewBox="0 0 14 14" id="faq-down" xmlns="http://www.w3.org/2000/svg">
    <path d="M0.75 0.75L13.25 13.25M13.25 13.25V0.75M13.25 13.25H0.75" stroke-linecap="round" stroke-linejoin="round"/>
</symbol><symbol viewBox="0 0 14 14" id="faq-up" xmlns="http://www.w3.org/2000/svg">
    <path d="M0.75 0.75H13.25M13.25 0.75V13.25M13.25 0.75L0.75 13.25" stroke-linecap="round" stroke-linejoin="round"/>
</symbol><symbol viewBox="0 0 16 16" id="feedback-arrow-right" xmlns="http://www.w3.org/2000/svg">
    <path d="M1 8H15M15 8L8 1M15 8L8 15" stroke-linecap="round" stroke-linejoin="round"/>
</symbol><symbol viewBox="0 0 22 21" id="feedback-star" xmlns="http://www.w3.org/2000/svg">
    <path d="M10.5251 1.29489C10.5689 1.20635 10.6366 1.13183 10.7205 1.07972C10.8045 1.02761 10.9013 1 11.0001 1C11.0989 1 11.1957 1.02761 11.2796 1.07972C11.3636 1.13183 11.4313 1.20635 11.4751 1.29489L13.7851 5.97389C13.9373 6.28186 14.1619 6.5483 14.4397 6.75035C14.7175 6.95239 15.0402 7.08401 15.3801 7.13389L20.5461 7.88989C20.644 7.90408 20.7359 7.94537 20.8116 8.00909C20.8872 8.07282 20.9435 8.15644 20.9741 8.2505C21.0047 8.34456 21.0084 8.4453 20.9847 8.54133C20.961 8.63736 20.9109 8.72485 20.8401 8.79389L17.1041 12.4319C16.8577 12.672 16.6734 12.9684 16.5669 13.2955C16.4605 13.6227 16.4352 13.9708 16.4931 14.3099L17.3751 19.4499C17.3924 19.5477 17.3818 19.6485 17.3446 19.7406C17.3074 19.8327 17.245 19.9125 17.1646 19.9709C17.0842 20.0293 16.9891 20.0639 16.89 20.0708C16.7908 20.0777 16.6918 20.0566 16.6041 20.0099L11.9861 17.5819C11.6818 17.4221 11.3433 17.3386 10.9996 17.3386C10.6559 17.3386 10.3174 17.4221 10.0131 17.5819L5.39609 20.0099C5.30842 20.0563 5.20949 20.0772 5.11054 20.0701C5.0116 20.0631 4.91661 20.0285 4.83639 19.9701C4.75616 19.9118 4.69392 19.8321 4.65675 19.7401C4.61957 19.6481 4.60895 19.5476 4.62609 19.4499L5.50709 14.3109C5.56529 13.9716 5.54007 13.6233 5.43363 13.2959C5.32718 12.9686 5.1427 12.672 4.89609 12.4319L1.16009 8.79489C1.08868 8.72593 1.03808 8.63829 1.01405 8.54197C0.990022 8.44565 0.993528 8.34451 1.02417 8.25008C1.05481 8.15566 1.11136 8.07174 1.18737 8.00788C1.26338 7.94402 1.35579 7.90279 1.45409 7.88889L6.61909 7.13389C6.95935 7.08439 7.28248 6.95295 7.56067 6.75088C7.83887 6.54881 8.06379 6.28216 8.21609 5.97389L10.5251 1.29489Z" stroke-linecap="round" stroke-linejoin="round"/>
</symbol><symbol viewBox="0 0 14 8" id="header-arrow-down" xmlns="http://www.w3.org/2000/svg">
    <path d="M1 1L7 7L13 1" stroke-linecap="round" stroke-linejoin="round"/>
</symbol><symbol viewBox="0 0 22 22" id="header-close" xmlns="http://www.w3.org/2000/svg">
    <path d="M0.688027 0.68795L21.312 21.3119M21.312 0.68795L0.688027 21.3119" stroke-linecap="round" stroke-linejoin="round"/>
</symbol><symbol viewBox="0 0 26 20" id="header-nav" xmlns="http://www.w3.org/2000/svg">
    <path d="M1 10H25M1 1H25M1 19H25" stroke-width="2" stroke-linecap="round" stroke-linejoin="round"/>
</symbol><symbol viewBox="0 0 20 22" id="input-calendar" xmlns="http://www.w3.org/2000/svg">
    <path d="M6 1V5M14 1V5M1 9H19M6 13H6.01M10 13H10.01M14 13H14.01M6 17H6.01M10 17H10.01M14 17H14.01M3 3H17C18.1046 3 19 3.89543 19 5V19C19 20.1046 18.1046 21 17 21H3C1.89543 21 1 20.1046 1 19V5C1 3.89543 1.89543 3 3 3Z" stroke-linecap="round" stroke-linejoin="round"/>
</symbol><symbol viewBox="0 0 22 18" id="input-car-left" xmlns="http://www.w3.org/2000/svg">
    <path d="M9 15V3C9 2.46957 9.21071 1.96086 9.58579 1.58579C9.96086 1.21071 10.4696 1 11 1H19C19.5304 1 20.0391 1.21071 20.4142 1.58579C20.7893 1.96086 21 2.46957 21 3V14C21 14.2652 20.8946 14.5196 20.7071 14.7071C20.5196 14.8946 20.2652 15 20 15H18M18 15C18 16.1046 17.1046 17 16 17C14.8954 17 14 16.1046 14 15M18 15C18 13.8954 17.1046 13 16 13C14.8954 13 14 13.8954 14 15M4 15H2C1.73478 15 1.48043 14.8946 1.29289 14.7071C1.10536 14.5196 1 14.2652 1 14V10.72C1.00016 10.5102 1.0663 10.3058 1.18905 10.1356C1.3118 9.96551 1.48496 9.8383 1.684 9.772L3.607 9.131C3.73159 9.08939 3.84677 9.02364 3.94594 8.9375C4.04512 8.85137 4.12635 8.74654 4.185 8.629L5.724 5.553C5.80699 5.38692 5.93458 5.24722 6.09247 5.14955C6.25037 5.05188 6.43234 5.0001 6.618 5H9M4 15C4 16.1046 4.89543 17 6 17C7.10457 17 8 16.1046 8 15M4 15C4 13.8954 4.89543 13 6 13C7.10457 13 8 13.8954 8 15M14 15H8" stroke-linecap="round" stroke-linejoin="round"/>
</symbol><symbol viewBox="0 0 22 18" id="input-car-right" xmlns="http://www.w3.org/2000/svg">
    <path d="M13 15V3C13 2.46957 12.7893 1.96086 12.4142 1.58579C12.0391 1.21071 11.5304 1 11 1H3C2.46957 1 1.96086 1.21071 1.58579 1.58579C1.21071 1.96086 1 2.46957 1 3V14C1 14.2652 1.10536 14.5196 1.29289 14.7071C1.48043 14.8946 1.73478 15 2 15H4M4 15C4 16.1046 4.89543 17 6 17C7.10457 17 8 16.1046 8 15M4 15C4 13.8954 4.89543 13 6 13C7.10457 13 8 13.8954 8 15M18 15H20C20.2652 15 20.5196 14.8946 20.7071 14.7071C20.8946 14.5196 21 14.2652 21 14V10.72C20.9998 10.5102 20.9337 10.3058 20.8109 10.1356C20.6882 9.96551 20.515 9.8383 20.316 9.772L18.393 9.131C18.2684 9.08939 18.1532 9.02364 18.0541 8.9375C17.9549 8.85137 17.8737 8.74654 17.815 8.629L16.276 5.553C16.193 5.38692 16.0654 5.24722 15.9075 5.14955C15.7496 5.05188 15.5677 5.0001 15.382 5H13M18 15C18 16.1046 17.1046 17 16 17C14.8954 17 14 16.1046 14 15M18 15C18 13.8954 17.1046 13 16 13C14.8954 13 14 13.8954 14 15M8 15H14" stroke-linecap="round" stroke-linejoin="round"/>
</symbol></svg>