<svg width="44" height="42" fill="none" xmlns="http://www.w3.org/2000/svg"><path d="M15 2h14v12a7 7 0 11-14 0V2z" fill="#D34F82"/><path fill="#13A152" d="M1 22v18h7V22z"/><path d="M21.274 15.85c.28.267.746.213.96-.108l4.191-6.327a.63.63 0 00-1.05-.697l-3.778 5.702-2.099-1.993a.63.63 0 00-.867.914l2.643 2.51z" fill="#000"/><path d="M21.704 25.458a.933.933 0 00.386.084h.006a.922.922 0 00.39-.089c9.578-4.555 11.202-14.383 11.47-17.287a1.505 1.505 0 00-.928-1.536 5.505 5.505 0 01-3.383-4.62A1.244 1.244 0 0028.411.883h-.008L15.5.959a1.234 1.234 0 00-1.229 1.15 5.506 5.506 0 01-3.333 4.653 1.5 1.5 0 00-.905 1.544c.303 2.9 2.041 12.71 11.672 17.152zM11.432 7.92a6.76 6.76 0 004.093-5.702l12.867-.075a6.76 6.76 0 004.153 5.65.254.254 0 01.158.257c-.253 2.721-1.764 11.897-10.615 16.197-8.901-4.195-10.519-13.353-10.804-16.072a.248.248 0 01.148-.255z" fill="#000"/><path d="M43.048 26.947a2.624 2.624 0 00-3.623-.7l-8.235 5.51-1.757-.098-.045-.45a3.823 3.823 0 00-3.31-3.42l-8.873-.777c-.3-.047-1.26-.323-3.901-1.837a9.8 9.8 0 00-4.49-1.292v-1.648c0-.827-.672-1.5-1.499-1.5H2c-.827 0-1.5.674-1.5 1.5v16.23c0 .827.673 1.5 1.5 1.5h5.315c.827 0 1.5-.673 1.5-1.5v-.447l7.756 2.937c.017.007.647.242 1.805.133l12.887-1.858c.003 0 .006 0 .01-.002a6.336 6.336 0 003.026-1.365l8.323-7.486a2.624 2.624 0 00.426-3.43zm-1.265 2.491l-8.315 7.478a5.076 5.076 0 01-2.39 1.068L18.201 39.84l-.012.002-.006.001a2.84 2.84 0 01-1.192-.076L8.815 36.67v-7.193a.63.63 0 10-1.26 0v8.987a.24.24 0 01-.24.24H2a.24.24 0 01-.24-.24v-16.23a.24.24 0 01.24-.24h5.315a.24.24 0 01.24.24v4.397a.63.63 0 101.26 0v-1.488a8.53 8.53 0 013.862 1.124c3.185 1.826 4.074 1.952 4.366 1.994l.033.004 8.874.777a2.567 2.567 0 012.184 2.29l.034.336-11.88.734a1.435 1.435 0 01-1.004-.515.63.63 0 10-.968.806 2.728 2.728 0 001.836.961c.389.041 12.708-.767 12.708-.767l2.47.14a.628.628 0 00.386-.106l8.41-5.63a1.362 1.362 0 011.88.364 1.363 1.363 0 01-.223 1.782z" fill="#000"/></svg>