<svg width="50" height="52" fill="none" xmlns="http://www.w3.org/2000/svg"><circle cx="20.5" cy="41.5" r="3.5" fill="#D34F82"/><circle cx="36.5" cy="16.5" r="3.5" fill="#13A152"/><path d="M11.48 28.264a.69.69 0 00-.548.08.757.757 0 00-.334.463l-1.031 4.148L.531 44.827a.79.79 0 00.12 1.059.697.697 0 001.008-.108l9.131-12a.777.777 0 00.135-.282l1.07-4.304a.796.796 0 00-.075-.576.747.747 0 00-.187-.222.707.707 0 00-.254-.13zm1.412-2.078a8.792 8.792 0 012.578-3.321l4.341-3.404a2.995 2.995 0 012.019-.641l4.158.236a1.4 1.4 0 01.625.186c.192.111.358.267.485.454a1.61 1.61 0 01.218 1.313c-.078.296-.24.56-.463.76a1.419 1.419 0 01-.789.352l-3.66.41a.705.705 0 00-.392.178c-.11.1-.19.232-.228.38l-1.398 5.434c-.112.431-.147.88-.105 1.325l.216 2.282c.019.2.113.385.261.513a.698.698 0 001.016-.107.788.788 0 00.16-.557l-.216-2.282a2.256 2.256 0 01.062-.777l1.269-4.932 3.168-.355c1.188-.133 2.165-1.001 2.49-2.212.24-.899.082-1.85-.435-2.61-.516-.759-1.32-1.223-2.206-1.273l-4.158-.237a4.39 4.39 0 00-2.787.813l.011-.03c1.022-2.657 2.786-4.861 5.101-6.373L27.36 9.67a.734.734 0 00.184-.172l6.252-8.265a.79.79 0 00-.117-1.066.697.697 0 00-1.013.118l-6.173 8.163-3.021 1.972c-2.577 1.683-4.54 4.136-5.678 7.095l-.9 2.339-2.287 1.793a10.303 10.303 0 00-3.022 3.892.79.79 0 00.119.835.695.695 0 001.02.051.759.759 0 00.168-.238zm36.457-23.72a.71.71 0 00-.53-.161.697.697 0 00-.27.089.733.733 0 00-.215.19l-4.013 5.273a.79.79 0 00.12 1.06.697.697 0 001.008-.11l4.012-5.272a.789.789 0 00-.112-1.068zm-5.94 7.805a.688.688 0 00-.8-.073.733.733 0 00-.214.191l-3.063 4.025c-.205.27-.318.604-.32.95l-.021 3.469-.736-.035c-1.513-.072-2.808 1.17-2.876 2.766l-.009.21a2.98 2.98 0 00.576 1.907 2.72 2.72 0 00-.394.314 2.88 2.88 0 00-.873 1.966l-.01.204c-.029.694.182 1.34.556 1.852a2.867 2.867 0 00-1.236 2.258l-.008.204c-.03.708.186 1.389.612 1.931a2.936 2.936 0 00-1.265 2.24c-.037.56.08 1.107.33 1.587a.79.79 0 00-.038.166l-.427 3.73a.187.187 0 01-.031.083l-1.957 2.857a.805.805 0 01-.504.337.775.775 0 01-.587-.119.821.821 0 01-.227-.23.883.883 0 01-.08-.818l1.104-1.773a4.5 4.5 0 00.217-.447 2.49 2.49 0 00.14-.6l.685-6.624a.788.788 0 00-.155-.559.713.713 0 00-.484-.28.688.688 0 00-.531.164.789.789 0 00-.266.51l-.685 6.624a.907.907 0 01-.035.167l-2.842 4.625a.96.96 0 01-.527.414.91.91 0 01-.656-.043.98.98 0 01-.515-.576 1.05 1.05 0 01.039-.79l1.175-2.528c.035-.076.17-.587.19-.77l.786-7.2a.79.79 0 00-.152-.56.714.714 0 00-.483-.283c-.396-.047-.754.252-.8.669l-.786 7.2a.813.813 0 01-.14.376l-2.756 3.96a.906.906 0 01-1.194.293c-.442-.243-.627-.807-.422-1.285l1.503-3.504a3.45 3.45 0 00.262-1.68l-.24-2.54a.772.772 0 00-.263-.508.697.697 0 00-1.012.105.788.788 0 00-.162.554l.24 2.539c.028.31-.02.621-.142.904l-1.502 3.505a2.615 2.615 0 00-.202 1.252l-1.044.382c-.24.088-.45.245-.609.453l-4.858 6.383a.79.79 0 00.118 1.061.697.697 0 001.01-.11l4.84-6.36 1.1-.403c.2.247.442.45.714.6.355.195.735.289 1.11.289.736 0 1.453-.362 1.918-1.03l.376-.542.03.092a2.457 2.457 0 001.291 1.445c.52.24 1.104.28 1.648.109a2.41 2.41 0 001.323-1.04l.568-.911c.208.302.481.547.797.716.316.17.665.258 1.02.258.7 0 1.39-.344 1.828-.984l.326-.476c.152.256.347.481.577.662.416.327.9.486 1.38.486.674 0 1.34-.313 1.795-.911l1.19-1.565a3.476 3.476 0 00.686-1.73l.308-2.825c.943-.41 1.64-1.357 1.713-2.487a2.98 2.98 0 00-.609-2.024 2.863 2.863 0 001.27-2.28l.01-.204a2.928 2.928 0 00-.536-1.825 2.864 2.864 0 001.273-2.282l.008-.204a2.914 2.914 0 00-.572-1.878 2.93 2.93 0 001.264-2.309l.01-.21a2.972 2.972 0 00-.72-2.086 2.715 2.715 0 00-1.315-.844l.025-3.605 3.063-4.025a.776.776 0 00.154-.559.79.79 0 00-.085-.283.752.752 0 00-.181-.227zM40 25.282c.111.128.197.277.253.44.056.162.08.334.073.507l-.009.204a1.373 1.373 0 01-.116.498c-.07.157-.168.297-.289.414a1.239 1.239 0 01-.417.266 1.19 1.19 0 01-.482.077l-1.878-.103c-.603-.117-1.05-.688-1.022-1.351l.01-.204c.006-.173.046-.342.115-.499.07-.156.168-.297.29-.413.23-.222.53-.345.841-.345l1.765.083c.164.007.325.048.473.121.15.074.283.177.393.305zm-.429 5.461c-.03.725-.615 1.288-1.305 1.255l-1.65-.078a1.192 1.192 0 01-.473-.122 1.247 1.247 0 01-.393-.304 1.321 1.321 0 01-.253-.44 1.368 1.368 0 01-.073-.507l.009-.204c.031-.724.615-1.287 1.305-1.255l1.82.1c.604.117 1.05.688 1.022 1.351l-.009.204zm-3.052 10.464l-1.19 1.565a.823.823 0 01-1.183.158.91.91 0 01-.333-.574.939.939 0 01.137-.657l.395-.61.004-.007a1.77 1.77 0 00.279-.763l.323-2.824c.317.15.657.235 1.004.25l1.21.058-.269 2.452a1.915 1.915 0 01-.377.952zm2.393-6.194c-.048.742-.66 1.318-1.369 1.286l-1.523-.072a1.277 1.277 0 01-.92-.46 1.416 1.416 0 01-.33-1.014c.047-.743.66-1.318 1.368-1.286l1.523.072c.356.017.683.18.92.46s.355.64.33 1.014zm2.115-13.18l-.01.209c-.032.76-.643 1.35-1.367 1.316l-1.586-.075a1.276 1.276 0 01-.908-.448 1.413 1.413 0 01-.342-.992l.009-.21c.032-.76.644-1.347 1.368-1.316l1.585.075c.172.007.341.05.497.128a1.383 1.383 0 01.677.78c.059.17.085.351.077.532z" fill="#000"/></svg>