<svg width="42" height="42" fill="none" xmlns="http://www.w3.org/2000/svg"><path fill="#D34F82" d="M14 25h4v4h-4z"/><path fill="#13A152" d="M7 20h4v-4H7z"/><path d="M36.498 26.4a1.887 1.887 0 00-2.665 0l-4.428 4.429-1.548-1.548a1.887 1.887 0 00-2.665 0 1.887 1.887 0 000 2.665l2.88 2.88a1.872 1.872 0 001.333.552c.503 0 .977-.196 1.333-.551l5.76-5.761a1.873 1.873 0 00.552-1.333 1.872 1.872 0 00-.552-1.332zm-.874 1.792l-5.76 5.76a.644.644 0 01-.918 0l-2.88-2.88a.646.646 0 010-.917.646.646 0 01.917 0l1.985 1.985a.618.618 0 00.874 0l4.865-4.865a.65.65 0 01.917.917z" fill="#000"/><path d="M39.404 23.612v-4.9a.618.618 0 10-1.236 0v3.632a11.163 11.163 0 00-2.728-1.75l-.111-.049-.113-.05a10.55 10.55 0 00-.2-.082l-.024-.01a11.058 11.058 0 00-1.716-.532V16.24a.617.617 0 00-.618-.618h-3.982a.617.617 0 00-.618.618v3.713a11.085 11.085 0 00-5.125 2.942.618.618 0 00.876.872 9.851 9.851 0 017.3-2.924l.046.002c.074.002.147.005.22.009l.035.002a9.91 9.91 0 013.529.868l.106.05.108.05c.064.031.127.063.189.095l.019.009c3.205 1.646 5.403 4.986 5.403 8.83 0 5.47-4.45 9.919-9.919 9.919-5.126 0-9.357-3.91-9.867-8.904v-.008a10.806 10.806 0 01-.022-.236l-.003-.051a6.498 6.498 0 01-.013-.2l-.004-.112-.006-.144a9.9 9.9 0 011.434-5.41.617.617 0 10-1.056-.642 11.135 11.135 0 00-1.614 6.063l.002.062.008.218.003.052.015.24.002.022c.08 1.037.3 2.047.662 3.016H1.236v-9.992a.618.618 0 10-1.236 0v10.61a.618.618 0 00.618.618h20.32c1.858 3.581 5.602 6.034 9.907 6.034C36.996 41.913 42 36.909 42 30.758a11.11 11.11 0 00-2.596-7.146zm-7.364-4.009h-2.746v-2.745h2.746v2.745zm-21.27-3.981H6.788a.617.617 0 00-.618.618v3.981a.617.617 0 00.618.618h3.982a.615.615 0 00.618-.618V16.24a.615.615 0 00-.618-.618zm-.618 3.981H7.406v-2.745h2.746v2.745z" fill="#000"/><path d="M18.066 15.622h-3.982a.617.617 0 00-.618.618v3.981a.619.619 0 00.618.618h3.982a.616.616 0 00.618-.618V16.24a.619.619 0 00-.618-.618zm-.618 3.981h-2.746v-2.745h2.746v2.745zm7.914-3.981H21.38a.617.617 0 00-.618.618v3.981a.619.619 0 00.618.618h3.982a.615.615 0 00.618-.618V16.24a.615.615 0 00-.618-.618zm-.618 3.981h-2.746v-2.745h2.746v2.745zM10.77 24.17H6.788a.62.62 0 00-.618.618v3.982a.618.618 0 00.618.618h3.982a.618.618 0 00.618-.618v-3.982a.618.618 0 00-.618-.618zm-.618 3.982H7.406v-2.746h2.746v2.746zm7.914-3.982h-3.982a.62.62 0 00-.618.618v3.982a.62.62 0 00.618.618h3.982a.618.618 0 00.618-.618v-3.982a.618.618 0 00-.618-.618zm-.618 3.982h-2.746v-2.746h2.746v2.746z" fill="#000"/><path d="M38.807 4.773h-3.861V2.54c0-1.352-1.1-2.453-2.453-2.453a2.455 2.455 0 00-2.452 2.453v2.233H9.405V2.54c0-1.352-1.1-2.453-2.452-2.453A2.455 2.455 0 004.5 2.54v2.233H.618A.618.618 0 000 5.391V22.18a.618.618 0 001.236 0V12.7h36.932v3.54a.618.618 0 101.236 0v-4a.615.615 0 00.021-.159v-6.69a.618.618 0 00-.618-.618zm-7.53-2.233c0-.671.546-1.217 1.216-1.217.671 0 1.217.546 1.217 1.217v4.832a1.218 1.218 0 01-1.216 1.216 1.218 1.218 0 01-1.217-1.216V2.54zm-25.54 0c0-.671.545-1.217 1.216-1.217.67 0 1.216.546 1.216 1.217v4.832c0 .67-.546 1.216-1.216 1.216-.67 0-1.216-.545-1.216-1.216V2.54zm32.43 8.922H1.258V6.01h3.244v1.363c0 1.352 1.1 2.452 2.452 2.452 1.352 0 2.452-1.1 2.452-2.452V6.009h20.636v1.363c0 1.352 1.1 2.452 2.453 2.452 1.352 0 2.452-1.1 2.452-2.452V6.009h3.222v5.453z" fill="#000"/></svg>