<svg width="40" height="42" fill="none" xmlns="http://www.w3.org/2000/svg"><mask id="a" style="mask-type:luminance" maskUnits="userSpaceOnUse" x="0" y="0" width="40" height="42"><path d="M39.19 40.893V1.107H.81v39.786h38.38z" fill="#fff" stroke="#fff"/></mask><g mask="url(#a)"><path d="M27.771 33c-.79 0-1.469.677-1.469 1.539 0 .862.679 1.539 1.469 1.539s1.469-.677 1.469-1.54c0-.861-.679-1.538-1.469-1.538z" stroke="#000"/><path fill="#D34F82" d="M2.872 27.3l7.345-4.24 4.17 7.223-7.344 4.24z"/><path fill="#13A152" d="M18.24 29.98H38v-3.293H18.24z"/><path d="M18.354 26.992a.425.425 0 00-.305.13.456.456 0 00-.126.317v1.91c0 .119.045.232.126.316.081.084.19.131.305.131h19.504v-2.804H18.354z" stroke="#000" stroke-miterlimit="10" stroke-linecap="round" stroke-linejoin="round"/><path d="M24.278 8.025v14.82m7.684-14.82v14.82" stroke="#000" stroke-linecap="round"/><path d="M37.858 26.992H18.634V3.724h19.224v23.268zM27.77 29.796c-2.517 0-4.578 2.134-4.578 4.742 0 2.609 2.06 4.743 4.579 4.743 2.518 0 4.578-2.134 4.578-4.742 0-2.609-2.06-4.743-4.578-4.743z" stroke="#000" stroke-miterlimit="10" stroke-linecap="round" stroke-linejoin="round"/><path d="M23.192 34.538c0-2.608 2.06-4.742 4.579-4.742h-8.442v3.969a.76.76 0 00.747.774h3.116v0z" stroke="#000" stroke-miterlimit="10" stroke-linecap="round" stroke-linejoin="round"/><path d="M27.77 29.796c2.52 0 4.58 2.134 4.58 4.742h4.76a.76.76 0 00.748-.773v-3.969H27.77zm-9.416 0a.424.424 0 01-.305-.13.455.455 0 01-.126-.317v-1.91a.47.47 0 01.003-.05l-16.913 11.1c-.35.23-.194.792.221.792h2.473a.826.826 0 00.454-.137l14.243-9.348h-.05zM5.574 26l1.683 2.753a.294.294 0 00.184.134.285.285 0 00.221-.04l1.39-.912a.313.313 0 00.09-.42L7.46 24.764 5.574 26zm7.011-2.8l3.58-2.349m-1.388 5.936l1.389-.911m-2.486-.882l2.486-1.63M2.374 20.883l5.333.39c.324.024.538-.342.368-.628l-.77-1.297a.306.306 0 01-.034-.224.296.296 0 01.129-.184l5.741-3.653a.445.445 0 00.137-.594l-.985-1.66a.418.418 0 00-.258-.195.404.404 0 00-.315.052l-5.742 3.654a.278.278 0 01-.216.036.287.287 0 01-.177-.133l-.77-1.297a.393.393 0 00-.707.056L2.034 20.31c-.106.261.067.553.34.573zM26.942.92h-8.588a.424.424 0 00-.305.13.455.455 0 00-.126.316v1.91c0 .12.045.233.126.317.081.083.19.13.305.13h19.504V1.367a.455.455 0 00-.127-.316.424.424 0 00-.305-.13H29.55" stroke="#000" stroke-miterlimit="10" stroke-linecap="round" stroke-linejoin="round"/><path d="M11.408 25.2l-1.066-1.743a.477.477 0 00-.299-.218.463.463 0 00-.36.065L3.35 27.46a.509.509 0 00-.148.682l3.636 5.944a.479.479 0 00.271.21.462.462 0 00.338-.03l6.438-4.224a.506.506 0 00.093-.64l-1.173-1.919" stroke="#000" stroke-miterlimit="10" stroke-linecap="round" stroke-linejoin="round"/></g></svg>