<svg width="46" height="36" fill="none" xmlns="http://www.w3.org/2000/svg"><path fill="#D34F82" d="M13 1h20v14H13z"/><path fill="#13A152" d="M1 32h44v-3H1z"/><path d="M45.327 28.415h-1.235V15.092a.673.673 0 00-.674-.674H33.87V1.094a.673.673 0 00-.674-.673H18.158a.673.673 0 100 1.347h2.388v4.778c0 .372.301.673.674.673h3.51a.673.673 0 00.673-.673V1.768h7.12v12.65H13.426V1.768h2.038a.673.673 0 100-1.347h-2.712a.673.673 0 00-.673.673v13.324H2.556a.673.673 0 00-.674.674v6.489a.673.673 0 101.348 0v-5.816h7.12v4.778c0 .372.301.673.673.673h3.51a.673.673 0 00.673-.673v-4.778h7.12v12.65H3.23v-4.14a.673.673 0 10-1.348 0v4.14H.674A.675.675 0 000 29.09v3.02c0 .372.301.673.674.673h1.208V34.2c0 .76.619 1.38 1.38 1.38H7.75a1.38 1.38 0 001.379-1.38v-1.418h10.248V34.2c0 .76.618 1.38 1.379 1.38h4.488a1.38 1.38 0 001.38-1.38v-1.418h3.47a.673.673 0 100-1.347H1.348v-1.673h43.306v1.673H32.788a.673.673 0 100 1.347h4.083V34.2c0 .76.619 1.38 1.38 1.38h4.488a1.38 1.38 0 001.379-1.38v-1.418h1.208A.673.673 0 0046 32.11v-3.02a.674.674 0 00-.673-.674zM24.056 5.872h-2.163V1.768h2.163v4.104zm1.22 26.91V34.2a.032.032 0 01-.032.032h-4.488a.032.032 0 01-.032-.032v-1.418h4.552zm-17.494 0V34.2a.032.032 0 01-.032.032H3.261a.032.032 0 01-.031-.032v-1.418h4.552zm26.496-17.017v4.104h-2.163v-4.104h2.163zM13.859 19.87h-2.162v-4.104h2.162v4.104zm9.815-4.104h7.094v4.778c0 .372.301.673.673.673h3.51a.673.673 0 00.674-.673v-4.778h7.12v12.65H23.674v-12.65zM42.77 34.2a.032.032 0 01-.032.032H38.25a.032.032 0 01-.032-.032v-1.418h4.553V34.2z" fill="#000"/></svg>