<svg width="60" height="32" viewBox="0 0 60 32" fill="none" xmlns="http://www.w3.org/2000/svg">
<rect x="39" y="13.2507" width="13.6353" height="13.6209" rx="6.81045" transform="rotate(-32.124 39 13.2507)" fill="#D34F82"/>
<path d="M12 1L23 1C23 7.07513 18.0751 12 12 12V1Z" fill="#13A152"/>
<path d="M51.3092 32C50.3074 32.0007 49.3279 31.7043 48.4947 31.1483C47.6614 30.5923 47.0117 29.8016 46.6278 28.8763C46.244 27.951 46.1432 26.9327 46.3381 25.9501C46.5331 24.9675 47.0152 24.0648 47.7232 23.3562C48.4313 22.6476 49.3337 22.1649 50.3162 21.9692C51.2986 21.7735 52.317 21.8735 53.2426 22.2567C54.1682 22.6399 54.9593 23.289 55.516 24.1219C56.0726 24.9548 56.3697 25.934 56.3697 26.9358C56.369 28.2781 55.8358 29.5652 54.887 30.5147C53.9382 31.4642 52.6514 31.9984 51.3092 32ZM51.3092 23.7189C50.6728 23.7182 50.0505 23.9062 49.521 24.2593C48.9915 24.6123 48.5786 25.1144 48.3346 25.7022C48.0905 26.2899 48.0263 26.9368 48.15 27.5611C48.2737 28.1853 48.5798 28.7589 49.0295 29.2091C49.4793 29.6594 50.0524 29.9661 50.6765 30.0906C51.3007 30.215 51.9476 30.1515 52.5357 29.9081C53.1237 29.6648 53.6263 29.2524 53.9799 28.7234C54.3336 28.1943 54.5223 27.5722 54.5223 26.9358C54.522 26.0834 54.1835 25.2659 53.5811 24.6628C52.9787 24.0597 52.1616 23.7202 51.3092 23.7189ZM24.6224 32C23.6205 32.001 22.6409 31.7048 21.8075 31.1489C20.974 30.593 20.3242 29.8025 19.9401 28.8772C19.5561 27.9519 19.4551 26.9335 19.6499 25.9508C19.8448 24.9681 20.3267 24.0653 21.0348 23.3566C21.7428 22.6479 22.6451 22.1651 23.6276 21.9693C24.6101 21.7735 25.6286 21.8735 26.5543 22.2566C27.4799 22.6398 28.2711 23.2888 28.8278 24.1218C29.3845 24.9547 29.6816 25.934 29.6816 26.9358C29.6807 28.2777 29.1475 29.5645 28.199 30.5139C27.2506 31.4633 25.9643 31.9977 24.6224 32ZM24.6224 23.7189C23.9859 23.718 23.3635 23.9058 22.8338 24.2587C22.3042 24.6116 21.8911 25.1136 21.6469 25.7013C21.4026 26.289 21.3382 26.936 21.4618 27.5603C21.5854 28.1847 21.8913 28.7583 22.341 29.2087C22.7907 29.6591 23.3639 29.9659 23.988 30.0905C24.6122 30.215 25.2592 30.1516 25.8473 29.9082C26.4354 29.6649 26.9381 29.2526 27.2918 28.7235C27.6455 28.1944 27.8343 27.5722 27.8343 26.9358C27.8336 26.0837 27.4952 25.2666 26.8931 24.6636C26.291 24.0606 25.4745 23.7209 24.6224 23.7189Z" fill="#13201E"/>
<path d="M57.9721 27.8591H55.4462C55.2012 27.8591 54.9663 27.7618 54.793 27.5886C54.6198 27.4153 54.5225 27.1804 54.5225 26.9354C54.5225 26.6904 54.6198 26.4555 54.793 26.2823C54.9663 26.1091 55.2012 26.0117 55.4462 26.0117H57.711V21.1138C57.7104 20.4516 57.5409 19.8005 57.2184 19.2221L52.2182 10.2575C52.1755 10.181 52.1132 10.1173 52.0376 10.0729C51.9621 10.0285 51.876 10.0051 51.7884 10.0051H44.9742V26.0154H47.1737C47.4187 26.0154 47.6537 26.1128 47.8269 26.286C48.0001 26.4592 48.0974 26.6941 48.0974 26.9391C48.0974 27.1841 48.0001 27.419 47.8269 27.5923C47.6537 27.7655 47.4187 27.8628 47.1737 27.8628H44.0505C43.8055 27.8628 43.5706 27.7655 43.3974 27.5923C43.2241 27.419 43.1268 27.1841 43.1268 26.9391V9.08139C43.1268 8.83642 43.2241 8.60148 43.3974 8.42825C43.5706 8.25503 43.8055 8.15772 44.0505 8.15772H51.7884C52.2051 8.15751 52.6143 8.26859 52.9738 8.47947C53.3332 8.69036 53.6297 8.99339 53.8328 9.35726L58.8318 18.3231C59.307 19.1765 59.5567 20.137 59.5571 21.1138V26.2741C59.5565 26.6942 59.3893 27.097 59.0922 27.3941C58.7951 27.6912 58.3923 27.8584 57.9721 27.8591ZM20.4857 27.8591H11.6295C11.3845 27.8591 11.1496 27.7618 10.9763 27.5886C10.8031 27.4153 10.7058 27.1804 10.7058 26.9354V19.8317C10.7058 19.5868 10.8031 19.3518 10.9763 19.1786C11.1496 19.0054 11.3845 18.9081 11.6295 18.9081C11.8745 18.9081 12.1094 19.0054 12.2826 19.1786C12.4558 19.3518 12.5532 19.5868 12.5532 19.8317V26.0117H20.4857C20.7307 26.0117 20.9656 26.1091 21.1388 26.2823C21.312 26.4555 21.4094 26.6904 21.4094 26.9354C21.4094 27.1804 21.312 27.4153 21.1388 27.5886C20.9656 27.7618 20.7307 27.8591 20.4857 27.8591ZM11.6295 16.5545C11.3845 16.5545 11.1496 16.4572 10.9763 16.284C10.8031 16.1108 10.7058 15.8758 10.7058 15.6309V9.42869C10.7058 9.18372 10.8031 8.94878 10.9763 8.77555C11.1496 8.60233 11.3845 8.50502 11.6295 8.50502C11.8745 8.50502 12.1094 8.60233 12.2826 8.77555C12.4558 8.94878 12.5532 9.18372 12.5532 9.42869V15.6346C12.5522 15.8789 12.4544 16.1129 12.2813 16.2853C12.1082 16.4577 11.8738 16.5545 11.6295 16.5545Z" fill="#13201E"/>
<path d="M44.0504 27.8593H28.758C28.5131 27.8593 28.2781 27.762 28.1049 27.5887C27.9317 27.4155 27.8344 27.1806 27.8344 26.9356C27.8344 26.6906 27.9317 26.4557 28.1049 26.2825C28.2781 26.1092 28.5131 26.0119 28.758 26.0119H43.1267V1.84735H12.5531V5.65166C12.5531 5.89663 12.4558 6.13157 12.2825 6.3048C12.1093 6.47802 11.8744 6.57534 11.6294 6.57534C11.3844 6.57534 11.1495 6.47802 10.9763 6.3048C10.803 6.13157 10.7057 5.89663 10.7057 5.65166V1.67739C10.7064 1.23251 10.8835 0.806049 11.1982 0.491582C11.5129 0.177116 11.9395 0.000325685 12.3843 0H43.2967C43.7414 0.000651536 44.1676 0.177585 44.4821 0.492017C44.7965 0.806448 44.9734 1.23272 44.9741 1.67739V26.9356C44.9741 27.1806 44.8768 27.4155 44.7035 27.5887C44.5303 27.762 44.2954 27.8593 44.0504 27.8593ZM15.281 20.7556H3.55771C3.31273 20.7556 3.07779 20.6583 2.90457 20.4851C2.73135 20.3118 2.63403 20.0769 2.63403 19.8319C2.63403 19.587 2.73135 19.352 2.90457 19.1788C3.07779 19.0056 3.31273 18.9082 3.55771 18.9082H15.281C15.526 18.9082 15.7609 19.0056 15.9341 19.1788C16.1074 19.352 16.2047 19.587 16.2047 19.8319C16.2047 20.0769 16.1074 20.3118 15.9341 20.4851C15.7609 20.6583 15.526 20.7556 15.281 20.7556Z" fill="#13201E"/>
<path d="M24.6225 16.5548H8.26357C8.01859 16.5548 7.78365 16.4575 7.61043 16.2842C7.43721 16.111 7.33989 15.8761 7.33989 15.6311C7.33989 15.3861 7.43721 15.1512 7.61043 14.978C7.78365 14.8047 8.01859 14.7074 8.26357 14.7074H24.6225C24.8674 14.7074 25.1024 14.8047 25.2756 14.978C25.4488 15.1512 25.5461 15.3861 25.5461 15.6311C25.5461 15.8761 25.4488 16.111 25.2756 16.2842C25.1024 16.4575 24.8674 16.5548 24.6225 16.5548ZM7.75493 11.6778H1.36679C1.12182 11.6778 0.886876 11.5804 0.713653 11.4072C0.540431 11.234 0.443115 10.9991 0.443115 10.7541C0.443115 10.5091 0.540431 10.2742 0.713653 10.1009C0.886876 9.92773 1.12182 9.83041 1.36679 9.83041H7.75493C7.9999 9.83041 8.23484 9.92773 8.40807 10.1009C8.58129 10.2742 8.67861 10.5091 8.67861 10.7541C8.67861 10.9991 8.58129 11.234 8.40807 11.4072C8.23484 11.5804 7.9999 11.6778 7.75493 11.6778ZM17.9979 6.57538H6.72164C6.47667 6.57538 6.24173 6.47806 6.06851 6.30484C5.89528 6.13162 5.79797 5.89668 5.79797 5.6517C5.79797 5.40673 5.89528 5.17179 6.06851 4.99857C6.24173 4.82534 6.47667 4.72803 6.72164 4.72803H17.9979C18.2428 4.72803 18.4778 4.82534 18.651 4.99857C18.8242 5.17179 18.9215 5.40673 18.9215 5.6517C18.9215 5.89668 18.8242 6.13162 18.651 6.30484C18.4778 6.47806 18.2428 6.57538 17.9979 6.57538Z" fill="#13201E"/>
</svg>
