<?xml version="1.0" encoding="utf-8"?><svg viewBox="0 0 26 22" xmlns="http://www.w3.org/2000/svg" xmlns:xlink="http://www.w3.org/1999/xlink"><style>:root>svg{display:none}:root>svg:target{display:block}</style><svg fill="none" viewBox="0 0 16 16" id="faq-arrow-left" xmlns="http://www.w3.org/2000/svg">
    <path d="M8 15 1 8m0 0 7-7M1 8h14" stroke="#13201E" stroke-linecap="round" stroke-linejoin="round"/>
</svg><svg fill="none" viewBox="0 0 14 14" id="faq-down" xmlns="http://www.w3.org/2000/svg">
    <path d="m.75.75 12.5 12.5m0 0V.75m0 12.5H.75" stroke="#13201E" stroke-linecap="round" stroke-linejoin="round"/>
</svg><svg fill="none" viewBox="0 0 14 14" id="faq-up" xmlns="http://www.w3.org/2000/svg">
    <path d="M.75.75h12.5m0 0v12.5m0-12.5L.75 13.25" stroke="#13201E" stroke-linecap="round" stroke-linejoin="round"/>
</svg><svg fill="none" viewBox="0 0 16 16" id="feedback-arrow-right" xmlns="http://www.w3.org/2000/svg">
    <path d="M1 8h14m0 0L8 1m7 7-7 7" stroke="#13201E" stroke-linecap="round" stroke-linejoin="round"/>
</svg><svg fill="none" viewBox="0 0 22 21" id="feedback-star" xmlns="http://www.w3.org/2000/svg">
    <path d="M10.525 1.295a.53.53 0 0 1 .95 0l2.31 4.679a2.123 2.123 0 0 0 1.595 1.16l5.166.756a.53.53 0 0 1 .294.904l-3.736 3.638a2.124 2.124 0 0 0-.61 1.878l.881 5.14a.53.53 0 0 1-.77.56l-4.619-2.428a2.122 2.122 0 0 0-1.973 0L5.396 20.01a.53.53 0 0 1-.77-.56l.881-5.14a2.122 2.122 0 0 0-.61-1.878L1.16 8.795a.53.53 0 0 1 .294-.906l5.165-.755a2.122 2.122 0 0 0 1.597-1.16l2.31-4.68Z" fill="#13A152" stroke="#13A152" stroke-linecap="round" stroke-linejoin="round"/>
</svg><svg fill="none" viewBox="0 0 14 8" id="header-arrow-down" xmlns="http://www.w3.org/2000/svg">
    <path d="m1 1 6 6 6-6" stroke="#13201E" stroke-linecap="round" stroke-linejoin="round"/>
</svg><svg fill="none" viewBox="0 0 22 22" id="header-close" xmlns="http://www.w3.org/2000/svg">
    <path d="m.688.688 20.624 20.624m0-20.624L.688 21.312" stroke="#7E7676" stroke-linecap="round" stroke-linejoin="round"/>
</svg><svg fill="none" viewBox="0 0 26 20" id="header-nav" xmlns="http://www.w3.org/2000/svg">
    <path d="M1 10h24M1 1h24M1 19h24" stroke="#13201E" stroke-width="2" stroke-linecap="round" stroke-linejoin="round"/>
</svg><svg fill="none" viewBox="0 0 20 22" id="input-calendar" xmlns="http://www.w3.org/2000/svg">
    <path d="M6 1v4m8-4v4M1 9h18M6 13h.01M10 13h.01M14 13h.01M6 17h.01M10 17h.01M14 17h.01M3 3h14a2 2 0 0 1 2 2v14a2 2 0 0 1-2 2H3a2 2 0 0 1-2-2V5a2 2 0 0 1 2-2Z" stroke="#7E7676" stroke-linecap="round" stroke-linejoin="round"/>
</svg><svg fill="none" viewBox="0 0 22 18" id="input-car-left" xmlns="http://www.w3.org/2000/svg">
    <path d="M9 15V3a2 2 0 0 1 2-2h8a2 2 0 0 1 2 2v11a1 1 0 0 1-1 1h-2m0 0a2 2 0 1 1-4 0m4 0a2 2 0 1 0-4 0M4 15H2a1 1 0 0 1-1-1v-3.28a1 1 0 0 1 .684-.948l1.923-.641a1 1 0 0 0 .578-.502l1.539-3.076A1 1 0 0 1 6.618 5H9M4 15a2 2 0 1 0 4 0m-4 0a2 2 0 1 1 4 0m6 0H8" stroke="#7E7676" stroke-linecap="round" stroke-linejoin="round"/>
</svg><svg fill="none" viewBox="0 0 22 18" id="input-car-right" xmlns="http://www.w3.org/2000/svg">
    <path d="M13 15V3a2 2 0 0 0-2-2H3a2 2 0 0 0-2 2v11a1 1 0 0 0 1 1h2m0 0a2 2 0 1 0 4 0m-4 0a2 2 0 1 1 4 0m10 0h2a1 1 0 0 0 1-1v-3.28a1 1 0 0 0-.684-.948l-1.923-.641a.999.999 0 0 1-.578-.502l-1.539-3.076A1 1 0 0 0 15.382 5H13m5 10a2 2 0 1 1-4 0m4 0a2 2 0 1 0-4 0m-6 0h6" stroke="#7E7676" stroke-linecap="round" stroke-linejoin="round"/>
</svg><svg viewBox="0 0 16 16" id="input-tel" xmlns="http://www.w3.org/2000/svg">
    <path fill="currentColor" d="M3.654 1.328a.678.678 0 0 0-1.015-.063L1.605 2.3c-.483.484-.661 1.169-.45 1.77a17.6 17.6 0 0 0 4.168 6.608 17.6 17.6 0 0 0 6.608 4.168c.601.211 1.286.033 1.77-.45l1.034-1.034a.678.678 0 0 0-.063-1.015l-2.307-1.794a.68.68 0 0 0-.58-.122l-2.19.547a1.75 1.75 0 0 1-1.657-.459L5.482 8.062a1.75 1.75 0 0 1-.46-1.657l.548-2.19a.68.68 0 0 0-.122-.58zM1.884.511a1.745 1.745 0 0 1 2.612.163L6.29 2.98c.329.423.445.974.315 1.494l-.547 2.19a.68.68 0 0 0 .178.643l2.457 2.457a.68.68 0 0 0 .644.178l2.189-.547a1.75 1.75 0 0 1 1.494.315l2.306 1.794c.829.645.905 1.87.163 2.611l-1.034 1.034c-.74.74-1.846 1.065-2.877.702a18.6 18.6 0 0 1-7.01-4.42 18.6 18.6 0 0 1-4.42-7.009c-.362-1.03-.037-2.137.703-2.877z"/>
</svg></svg>