<svg width="22" height="21" viewBox="0 0 22 21" fill="none" xmlns="http://www.w3.org/2000/svg">
<path d="M10.5251 1.29489C10.5689 1.20635 10.6366 1.13183 10.7205 1.07972C10.8045 1.02761 10.9013 1 11.0001 1C11.0989 1 11.1957 1.02761 11.2796 1.07972C11.3636 1.13183 11.4313 1.20635 11.4751 1.29489L13.7851 5.97389C13.9373 6.28186 14.1619 6.5483 14.4397 6.75035C14.7175 6.95239 15.0402 7.08401 15.3801 7.13389L20.5461 7.88989C20.644 7.90408 20.7359 7.94537 20.8116 8.00909C20.8872 8.07282 20.9435 8.15644 20.9741 8.2505C21.0047 8.34456 21.0084 8.4453 20.9847 8.54133C20.961 8.63736 20.9109 8.72485 20.8401 8.79389L17.1041 12.4319C16.8577 12.672 16.6734 12.9684 16.5669 13.2955C16.4605 13.6227 16.4352 13.9708 16.4931 14.3099L17.3751 19.4499C17.3924 19.5477 17.3818 19.6485 17.3446 19.7406C17.3074 19.8327 17.245 19.9125 17.1646 19.9709C17.0842 20.0293 16.9891 20.0639 16.89 20.0708C16.7908 20.0777 16.6918 20.0566 16.6041 20.0099L11.9861 17.5819C11.6818 17.4221 11.3433 17.3386 10.9996 17.3386C10.6559 17.3386 10.3174 17.4221 10.0131 17.5819L5.39609 20.0099C5.30842 20.0563 5.20949 20.0772 5.11054 20.0701C5.0116 20.0631 4.91661 20.0285 4.83639 19.9701C4.75616 19.9118 4.69392 19.8321 4.65675 19.7401C4.61957 19.6481 4.60895 19.5476 4.62609 19.4499L5.50709 14.3109C5.56529 13.9716 5.54007 13.6233 5.43363 13.2959C5.32718 12.9686 5.1427 12.672 4.89609 12.4319L1.16009 8.79489C1.08868 8.72593 1.03808 8.63829 1.01405 8.54197C0.990022 8.44565 0.993528 8.34451 1.02417 8.25008C1.05481 8.15566 1.11136 8.07174 1.18737 8.00788C1.26338 7.94402 1.35579 7.90279 1.45409 7.88889L6.61909 7.13389C6.95935 7.08439 7.28248 6.95295 7.56067 6.75088C7.83887 6.54881 8.06379 6.28216 8.21609 5.97389L10.5251 1.29489Z" fill="#13A152" stroke="#13A152" stroke-linecap="round" stroke-linejoin="round"/>
</svg>
