<svg width="22" height="18" viewBox="0 0 22 18" fill="none" xmlns="http://www.w3.org/2000/svg">
<path d="M13 15V3C13 2.46957 12.7893 1.96086 12.4142 1.58579C12.0391 1.21071 11.5304 1 11 1H3C2.46957 1 1.96086 1.21071 1.58579 1.58579C1.21071 1.96086 1 2.46957 1 3V14C1 14.2652 1.10536 14.5196 1.29289 14.7071C1.48043 14.8946 1.73478 15 2 15H4M4 15C4 16.1046 4.89543 17 6 17C7.10457 17 8 16.1046 8 15M4 15C4 13.8954 4.89543 13 6 13C7.10457 13 8 13.8954 8 15M18 15H20C20.2652 15 20.5196 14.8946 20.7071 14.7071C20.8946 14.5196 21 14.2652 21 14V10.72C20.9998 10.5102 20.9337 10.3058 20.8109 10.1356C20.6882 9.96551 20.515 9.8383 20.316 9.772L18.393 9.131C18.2684 9.08939 18.1532 9.02364 18.0541 8.9375C17.9549 8.85137 17.8737 8.74654 17.815 8.629L16.276 5.553C16.193 5.38692 16.0654 5.24722 15.9075 5.14955C15.7496 5.05188 15.5677 5.0001 15.382 5H13M18 15C18 16.1046 17.1046 17 16 17C14.8954 17 14 16.1046 14 15M18 15C18 13.8954 17.1046 13 16 13C14.8954 13 14 13.8954 14 15M8 15H14" stroke="#7E7676" stroke-linecap="round" stroke-linejoin="round"/>
</svg>
