<svg width="22" height="18" viewBox="0 0 22 18" fill="none" xmlns="http://www.w3.org/2000/svg">
<path d="M9 15V3C9 2.46957 9.21071 1.96086 9.58579 1.58579C9.96086 1.21071 10.4696 1 11 1H19C19.5304 1 20.0391 1.21071 20.4142 1.58579C20.7893 1.96086 21 2.46957 21 3V14C21 14.2652 20.8946 14.5196 20.7071 14.7071C20.5196 14.8946 20.2652 15 20 15H18M18 15C18 16.1046 17.1046 17 16 17C14.8954 17 14 16.1046 14 15M18 15C18 13.8954 17.1046 13 16 13C14.8954 13 14 13.8954 14 15M4 15H2C1.73478 15 1.48043 14.8946 1.29289 14.7071C1.10536 14.5196 1 14.2652 1 14V10.72C1.00016 10.5102 1.0663 10.3058 1.18905 10.1356C1.3118 9.96551 1.48496 9.8383 1.684 9.772L3.607 9.131C3.73159 9.08939 3.84677 9.02364 3.94594 8.9375C4.04512 8.85137 4.12635 8.74654 4.185 8.629L5.724 5.553C5.80699 5.38692 5.93458 5.24722 6.09247 5.14955C6.25037 5.05188 6.43234 5.0001 6.618 5H9M4 15C4 16.1046 4.89543 17 6 17C7.10457 17 8 16.1046 8 15M4 15C4 13.8954 4.89543 13 6 13C7.10457 13 8 13.8954 8 15M14 15H8" stroke="#7E7676" stroke-linecap="round" stroke-linejoin="round"/>
</svg>
